<svg width="16" height="16" viewBox="0 0 16 16" fill="none" xmlns="http://www.w3.org/2000/svg">
<path d="M0 8C0 3.58172 3.58172 0 8 0C12.4183 0 16 3.58172 16 8C16 12.4183 12.4183 16 8 16C3.58172 16 0 12.4183 0 8Z" fill="#836EF9"/>
<path d="M8.09146 2C6.36736 2 2.12109 6.2672 2.12109 7.99996C2.12109 9.73273 6.36736 14 8.09146 14C9.8156 14 14.0619 9.73265 14.0619 7.99996C14.0619 6.26727 9.81564 2 8.09146 2ZM7.16109 11.431C6.43404 11.2319 4.47933 7.79563 4.67748 7.06498C4.87563 6.33429 8.29486 4.36992 9.02187 4.56905C9.74896 4.76815 11.7037 8.20434 11.5055 8.93503C11.3074 9.66568 7.88814 11.6301 7.16109 11.431Z" fill="white"/>
</svg>
